PathFileType	4	(X/Y/Z)	Patient4_TMGait_0pt3_03_left_31.trc.trc
DataRate	CameraRate	NumFrames	NumMarkers	Units	OrigDataRate	OrigDataStartFrame	OrigNumFrames
55.118110236220	55.118110236220	4	33	mm	55.118110236220	18	       141
Frame#	Time	Sacral			L.Shoulder			Chest			R.Shoulder			Neck			R.ASIS			L.ASIS			R.Thigh.Superior			R.Thigh.Lateral			R.Thigh.Inferior			R.Patella			L.Thigh.Superior			L.Thigh.Lateral			L.Thigh.Inferior			L.Patella			L.Shank.Superior			L.Shank.Lateral			L.Shank.Inferior			R.Shank.Superior			R.Shank.Lateral			R.Shank.Inferior			R.Heel			R.Midfoot.Superior			R.Midfoot.Lateral			R.Toe			L.Heel			L.Midfoot.Lateral			L.Midfoot.Superior			L.Toe			L.Elbow			L.Wrist			R.Elbow			R.Wrist			
		X1	Y1	Z1	X2	Y2	Z2	X3	Y3	Z3	X4	Y4	Z4	X5	Y5	Z5	X6	Y6	Z6	X7	Y7	Z7	X8	Y8	Z8	X9	Y9	Z9	X10	Y10	Z10	X11	Y11	Z11	X12	Y12	Z12	X13	Y13	Z13	X14	Y14	Z14	X15	Y15	Z15	X16	Y16	Z16	X17	Y17	Z17	X18	Y18	Z18	X19	Y19	Z19	X20	Y20	Z20	X21	Y21	Z21	X22	Y22	Z22	X23	Y23	Z23	X24	Y24	Z24	X25	Y25	Z25	X26	Y26	Z26	X27	Y27	Z27	X28	Y28	Z28	X29	Y29	Z29	X30	Y30	Z30	X31	Y31	Z31	X32	Y32	Z32	X33	Y33	Z33	

18	55.358428571429	681.917002896831	1007.863923116690	622.959941365809	837.514937777033	1426.997821863236	410.870174591608	968.040712037211	1354.101955122016	548.466101882997	926.731429426424	1433.118444759926	733.487021629685	854.988588426398	1489.914496701252	567.004240154719	924.119508846624	929.316161649744	693.088999001679	863.403033446310	963.992462870985	426.653796654164	939.530375311506	724.138634129364	647.926238528999	858.662232238154	615.764850944308	712.168932967292	918.086914375376	563.651612962856	618.644842510554	910.715076695368	471.794689855074	620.891049220879	940.131354229217	774.931592506586	447.187354385475	884.965083199769	651.702915372635	366.541920680695	986.393710664599	588.978330666841	425.222889690885	1009.401334980369	524.999429231237	418.839744461009	994.006401109813	454.724943691580	402.520513935506	930.170749155468	327.768154125281	340.926249315937	1018.388955347361	225.607622629747	389.373704598128	864.961433866562	388.157233601171	628.284566183288	783.094648481118	293.853600475751	693.276826058609	799.733192981071	197.971317923932	622.208345535089	640.131560107495	45.570886894572	594.625064778905	812.855228037376	95.490329830438	627.965721092962	724.055488837669	37.367907983208	667.809386362075	932.199296626258	41.249720089722	655.166945896550	933.926201259497	46.939451000477	417.211245682853	1009.845693722947	51.024813139346	339.050996366978	1082.301892513909	127.012539375990	362.392157146661	1215.403194566865	95.526172042415	338.391385014963	678.844476936027	1110.613130970076	325.864387639911	628.747882199357	855.892865049528	354.835926382431	1109.684739277642	1157.854284271654	848.723118651846	1327.886187049363	1262.304673751997	774.764286489644	
19	55.376571428571	682.521443396017	1008.518002902688	620.751054757232	837.527233174351	1427.691082113887	408.797169379022	968.542758013270	1354.409943571381	545.862022193134	927.763407596038	1433.501026908003	730.839972303526	855.351244138238	1490.208119171796	564.981587313942	924.233557953380	929.651761800431	691.312799133253	864.005633074540	963.731277323563	424.706134200797	937.175030072361	723.714522681423	647.262071545467	854.713698870094	616.398760675055	711.902901361386	913.625191350020	563.255520391510	618.899067715502	905.163706361235	471.832721020165	621.396165137310	938.992726837137	773.029223985558	445.171376406976	881.346257516943	650.149890652102	365.132376625283	982.348229460773	587.103658338277	423.482906622530	1003.696095654041	523.514179820147	417.827999936206	989.868805526294	453.360758658477	401.320839391025	927.908115995322	325.568394603219	339.696426618506	1017.239853079435	224.691091462553	388.770695321508	859.628738583364	388.408918660797	628.624490191179	777.587003310003	294.224438031301	693.704348456304	794.281684432319	198.255625882775	622.498152033177	634.649872306167	45.709936687612	594.727984800671	807.335081980219	95.325153287274	627.805425970633	718.582108878015	37.404396148878	667.853717204303	926.719137738847	41.133293570552	655.187836439923	934.944884987465	44.999940009432	416.396937645672	1011.096511056367	50.169641805166	338.434426738716	1082.461302498387	127.029787640806	362.218804110872	1216.153386212963	97.288006929667	338.528730490991	677.227029531311	1112.556146554673	324.839055963870	628.577512720317	857.450621878574	356.530640315021	1116.625675427615	1163.176793823719	844.170639100489	1330.585838512099	1274.460481346599	768.499303162523	
20	55.394714285714	683.128894753876	1008.588863945536	618.206247463922	837.696336201157	1427.838031843262	406.399655295286	969.051108577145	1354.268582790248	543.123366347998	928.544280180344	1433.429420139295	728.017635662190	855.690054707029	1490.068560803352	562.642564975130	924.439669363256	929.686795501901	689.545460945665	864.867546715909	962.907160464413	422.689363012895	935.394495063796	723.107439151679	646.548357213987	851.430872300507	616.701355250935	711.411094085360	909.982270280999	562.654016281857	618.960616781894	900.492370990561	471.535210574231	621.653586539078	938.297083425867	770.707392284078	443.170895637089	878.171335922239	648.145128084200	363.894341441702	978.795007316941	584.886534098806	421.925759739347	998.395749405378	521.482102324017	416.910527739708	985.881467022959	451.360124338772	400.222821431596	925.022224942850	323.068931455292	338.813776389341	1015.013421248264	223.066946466903	388.382221145737	854.983422106903	388.330895677091	628.729294895200	772.586604147486	294.458559308333	693.945460045432	789.117755457221	198.355354018572	622.663236992448	629.178821540776	45.855390243328	594.814476243028	801.843350118588	95.165358990027	627.617129424298	713.117442287124	37.453354659834	667.891000978379	921.247535118060	41.002422368475	655.214419878236	933.946004801471	43.051628793223	416.010691907754	1010.119104063740	48.918540958903	338.043326916556	1080.972144281094	126.027667709073	362.224017703911	1214.919249234652	97.104733033361	338.431018575244	676.641644069406	1113.374039872630	323.413934625745	629.602405228297	857.863149479901	357.579113276975	1122.811807301743	1167.694918118648	839.483222174423	1333.133054946065	1284.653223962760	762.566518548736	
21	55.412857142857	683.754864881060	1008.124285475542	615.378972048237	838.010965824331	1427.459640652099	403.670144138651	969.567569507527	1353.729452611028	540.242668934656	929.088474120043	1432.961317311502	725.016444000869	856.012551774916	1489.538552991566	559.976393279906	924.772348776007	929.434424323859	687.753684526338	865.953816602890	961.602639699233	420.596102939819	934.210923656149	722.320207216557	645.706703986187	848.867530045120	616.669518494361	710.645432521671	907.177953592988	561.845380972854	618.748878221109	896.716725074017	470.896410496309	621.586570525863	938.010206192129	768.034667543896	441.121486409920	875.431276204629	645.766543488451	362.765699378584	975.743442408011	582.358713107666	420.469966842741	993.620118403554	519.003117690530	416.018869458190	982.167806800955	448.850381833576	399.199999979722	921.762019681596	320.308023896347	338.206272062007	1012.035795515649	220.825979813246	388.177556308164	851.027094174431	387.924804722932	628.548623567572	768.109129867133	294.560682819639	693.958701172988	784.246614192891	198.275095994135	622.678617400412	623.720978212852	46.025477759384	594.883714254069	796.405918715373	95.045211203392	627.443331985244	707.665582639524	37.525685283784	667.921659694603	915.786687203994	40.857896197702	655.245926595122	931.302311184408	41.178961640240	415.971153267572	1007.370204748220	47.291475204025	337.864058089571	1078.289930841999	124.035009593958	362.429890314542	1212.190801855915	94.958301431500	338.281955126380	677.049829963891	1113.086946319026	321.580859200688	631.658429054100	857.187898031126	357.886283017447	1128.163595680110	1171.349066239924	834.728670635165	1335.535424184743	1292.868899442523	756.982985110444	
